<?xml version="1.0" encoding="utf-8"?>
<!-- Generator: Adobe Illustrator 12.0.1, SVG Export Plug-In . SVG Version: 6.00 Build 51448)  -->
<!DOCTYPE svg PUBLIC "-//W3C//DTD SVG 1.1//EN" "http://www.w3.org/Graphics/SVG/1.1/DTD/svg11.dtd" [
	<!ENTITY ns_svg "http://www.w3.org/2000/svg">
	<!ENTITY ns_xlink "http://www.w3.org/1999/xlink">
]>
<svg  version="1.1" id="Layer_1" xmlns="&ns_svg;" xmlns:xlink="&ns_xlink;" width="283.8" height="142.3"
	 viewBox="0 0 283.8 142.3" overflow="visible" enable-background="new 0 0 283.8 142.3" xml:space="preserve">
<polyline fill="#6884EA" stroke="#FFFFFF" stroke-width="0.9" stroke-linejoin="round" stroke-miterlimit="1.414" points="
	0.45,0.45 283.35,0.45 283.35,141.85 0.45,141.85 0.45,0.45 "/>
<path fill-rule="evenodd" clip-rule="evenodd" fill="#D1D7FF" d="M14.957,108.865c3.974,0,7.857-1.265,11.2-3.433
	c3.25-2.258,5.78-5.419,7.315-9.031c0.091-0.36,0.361-0.541,0.723-0.541c0.271,0,0.542,0.181,0.632,0.541
	c1.084,2.529,2.709,4.968,4.787,6.955c2.077,1.986,4.606,3.432,7.226,4.425v-7.587v-5.057v-5.148v-5.058v-5.148v-1.986
	c-1.084,0.813-2.258,1.625-3.522,2.348c-1.265,0.633-2.709,1.175-4.245,1.626c-3.161,0.723-6.503,0.813-9.844,0
	c-3.251-0.903-6.232-2.529-8.58-4.696c-1.174-1.084-2.167-2.257-2.98-3.433c-0.813-1.265-1.445-2.528-1.987-3.792h-0.723V108.865"/>
<path fill-rule="evenodd" clip-rule="evenodd" fill="#D1D7FF" d="M62.011,106.878c4.426-2.168,7.948-5.961,9.754-10.477
	c0.09-0.36,0.361-0.541,0.723-0.541c0.271,0,0.542,0.181,0.722,0.541c1.446,3.612,3.975,6.773,7.316,9.031
	c3.252,2.168,7.135,3.433,11.109,3.433s7.857-1.265,11.109-3.433c3.342-2.258,5.871-5.419,7.316-9.031
	c0.18-0.36,0.451-0.541,0.722-0.541c0.361,0,0.632,0.181,0.723,0.541c1.445,3.433,3.884,6.684,7.315,9.031
	c3.432,2.349,7.406,3.433,11.108,3.433V69.85h-0.631c-1.445,3.521-3.884,6.773-7.316,9.121c-3.522,2.258-7.405,3.342-11.199,3.342
	c-3.793,0-7.677-1.084-11.109-3.342c-3.432-2.348-5.871-5.601-7.315-9.121h-1.445c-0.903,2.438-2.438,4.786-4.516,6.863
	c-2.167,2.077-4.787,3.704-7.767,4.606c-2.89,0.993-6.051,1.264-8.941,0.813c-2.89-0.361-5.509-1.445-7.677-2.8V106.878"/>
<path fill-rule="evenodd" clip-rule="evenodd" fill="#A0AEFF" d="M34.827,96.401h-1.355c-1.445,3.433-3.883,6.684-7.315,9.031
	c-3.433,2.349-7.406,3.433-11.2,3.433v19.508h114.972v-19.508c-3.702,0-7.676-1.084-11.108-3.433
	c-3.432-2.348-5.871-5.599-7.315-9.031h-1.445c-1.355,3.433-3.884,6.684-7.316,9.031c-3.432,2.349-7.315,3.433-11.109,3.433
	c-3.793,0-7.677-1.084-11.109-3.433c-3.432-2.348-5.961-5.599-7.316-9.031h-1.445c-1.445,3.612-4.064,6.773-7.315,9.031
	c-3.252,2.168-7.135,3.433-11.109,3.433s-7.857-1.265-11.199-3.433C38.891,103.175,36.362,100.014,34.827,96.401"/>
<path fill="none" stroke="#FFFFFF" stroke-width="1.98" stroke-linejoin="round" stroke-miterlimit="1.414" d="M15.68,69.85
	c2.348,5.96,7.406,10.295,13.547,11.921c6.142,1.535,12.734,0.091,17.612-3.974"/>
<path fill="none" stroke="#FFFFFF" stroke-width="1.98" stroke-linejoin="round" stroke-miterlimit="1.414" d="M62.011,79.332
	c4.968,3.161,11.109,3.883,16.619,1.987c5.6-1.807,10.115-5.962,12.283-11.47"/>
<path fill="none" stroke="#FFFFFF" stroke-width="1.98" stroke-linejoin="round" stroke-miterlimit="1.414" d="M92.358,69.85
	c1.445,3.702,4.064,6.863,7.315,9.121c3.251,2.168,7.135,3.342,11.109,3.342c3.974,0,7.858-1.174,11.199-3.342
	c3.252-2.258,5.781-5.419,7.316-9.121"/>
<path fill="none" stroke="#FFFFFF" stroke-width="1.98" stroke-linejoin="round" stroke-miterlimit="1.414" d="M14.957,108.865
	c3.974,0,7.857-1.265,11.2-3.433c3.25-2.258,5.78-5.419,7.315-9.031"/>
<path fill="none" stroke="#FFFFFF" stroke-width="1.98" stroke-linejoin="round" stroke-miterlimit="1.414" d="M34.827,96.401
	c1.536,3.612,4.064,6.773,7.315,9.031c3.342,2.168,7.225,3.433,11.199,3.433s7.857-1.265,11.109-3.433
	c3.251-2.258,5.87-5.419,7.315-9.031"/>
<path fill="none" stroke="#FFFFFF" stroke-width="1.98" stroke-linejoin="round" stroke-miterlimit="1.414" d="M73.21,96.401
	c1.446,3.612,3.975,6.773,7.316,9.031c3.252,2.168,7.135,3.433,11.109,3.433s7.857-1.265,11.109-3.433
	c3.342-2.258,5.871-5.419,7.316-9.031"/>
<path fill="none" stroke="#FFFFFF" stroke-width="1.98" stroke-linejoin="round" stroke-miterlimit="1.414" d="M111.505,96.401
	c1.535,3.612,4.064,6.773,7.315,9.031c3.342,2.168,7.135,3.433,11.108,3.433"/>
<path fill="none" stroke="#FFFFFF" stroke-width="1.98" stroke-linejoin="round" stroke-miterlimit="1.414" d="M110.06,96.401
	c0.18-0.36,0.451-0.541,0.722-0.541c0.361,0,0.632,0.181,0.723,0.541"/>
<path fill="none" stroke="#FFFFFF" stroke-width="1.98" stroke-linejoin="round" stroke-miterlimit="1.414" d="M71.766,96.401
	c0.09-0.36,0.361-0.541,0.723-0.541c0.271,0,0.542,0.181,0.722,0.541"/>
<path fill="none" stroke="#FFFFFF" stroke-width="1.98" stroke-linejoin="round" stroke-miterlimit="1.414" d="M34.827,96.401
	c-0.09-0.36-0.361-0.541-0.632-0.541c-0.362,0-0.632,0.181-0.723,0.541"/>
<path fill="none" stroke="#FFFFFF" stroke-width="1.98" stroke-linejoin="round" stroke-miterlimit="1.414" d="M90.913,69.85
	c0.09-0.272,0.452-0.452,0.723-0.452c0.361,0,0.632,0.18,0.723,0.452"/>
<path fill="none" stroke="#FFFFFF" stroke-width="1.98" stroke-linejoin="round" stroke-miterlimit="1.414" d="M129.297,69.85
	c0.09-0.272,0.361-0.452,0.631-0.452"/>
<path fill="none" stroke="#FFFFFF" stroke-width="1.98" stroke-linejoin="round" stroke-miterlimit="1.414" d="M15.68,69.85
	c-0.09-0.272-0.361-0.452-0.723-0.452"/>
<path fill-rule="evenodd" clip-rule="evenodd" fill="#FF0000" d="M62.011,106.878V79.332V26.136H46.839v7.677v25.56v18.425v1.986
	v5.148v5.058v5.148v5.057v7.587c2.438,0.813,4.967,1.175,7.677,0.993C57.135,108.594,59.663,107.962,62.011,106.878"/>
<path fill="none" stroke="#FFFFFF" stroke-linecap="round" stroke-linejoin="bevel" stroke-miterlimit="1.414" d="M46.839,77.413
	c2.53-2.081,4.515-4.875,5.78-7.948"/>
<path fill="none" stroke="#FFFFFF" stroke-linecap="round" stroke-linejoin="bevel" stroke-miterlimit="1.414" d="M54.064,69.465
	c1.533,3.974,4.336,7.315,7.947,9.482"/>
<line fill="none" stroke="#FFFFFF" stroke-width="0.36" stroke-linejoin="bevel" stroke-miterlimit="1.414" x1="46.839" y1="38.87" x2="50.632" y2="38.87"/>
<line fill="none" stroke="#FFFFFF" stroke-width="0.36" stroke-linejoin="bevel" stroke-miterlimit="1.414" x1="46.839" y1="44.018" x2="50.632" y2="44.018"/>
<line fill="none" stroke="#FFFFFF" stroke-width="0.36" stroke-linejoin="bevel" stroke-miterlimit="1.414" x1="46.839" y1="49.166" x2="50.632" y2="49.166"/>
<line fill="none" stroke="#FFFFFF" stroke-width="0.36" stroke-linejoin="bevel" stroke-miterlimit="1.414" x1="46.839" y1="54.224" x2="50.632" y2="54.224"/>
<line fill="none" stroke="#FFFFFF" stroke-width="0.36" stroke-linejoin="bevel" stroke-miterlimit="1.414" x1="46.839" y1="64.43" x2="50.632" y2="64.43"/>
<line fill="none" stroke="#FFFFFF" stroke-width="0.36" stroke-linejoin="bevel" stroke-miterlimit="1.414" x1="46.839" y1="69.577" x2="50.632" y2="69.577"/>
<line fill="none" stroke="#FFFFFF" stroke-width="0.36" stroke-linejoin="bevel" stroke-miterlimit="1.414" x1="46.839" y1="74.726" x2="50.632" y2="74.726"/>
<line fill="none" stroke="#FFFFFF" stroke-width="0.36" stroke-linejoin="bevel" stroke-miterlimit="1.414" x1="46.839" y1="79.783" x2="50.632" y2="79.783"/>
<line fill="none" stroke="#FFFFFF" stroke-width="0.36" stroke-linejoin="bevel" stroke-miterlimit="1.414" x1="46.839" y1="89.989" x2="50.632" y2="89.989"/>
<line fill="none" stroke="#FFFFFF" stroke-width="0.36" stroke-linejoin="bevel" stroke-miterlimit="1.414" x1="46.839" y1="95.138" x2="50.632" y2="95.138"/>
<line fill="none" stroke="#FFFFFF" stroke-width="0.36" stroke-linejoin="bevel" stroke-miterlimit="1.414" x1="46.839" y1="100.194" x2="50.632" y2="100.194"/>
<line fill="none" stroke="#FFFFFF" stroke-width="0.36" stroke-linejoin="bevel" stroke-miterlimit="1.414" x1="46.839" y1="105.343" x2="50.632" y2="105.343"/>
<path fill="none" stroke="#FFFFFF" stroke-linecap="round" stroke-linejoin="bevel" stroke-miterlimit="1.414" d="M54.064,69.465
	c-0.182-0.271-0.452-0.452-0.723-0.452c-0.361,0-0.632,0.181-0.723,0.452"/>
<line fill="none" stroke="#FFFFFF" stroke-width="0.9" stroke-linejoin="round" stroke-miterlimit="1.414" x1="46.839" y1="33.813" x2="54.516" y2="33.813"/>
<line fill="none" stroke="#FFFFFF" stroke-width="0.9" stroke-linejoin="round" stroke-miterlimit="1.414" x1="46.839" y1="59.372" x2="54.516" y2="59.372"/>
<line fill="none" stroke="#FFFFFF" stroke-width="0.9" stroke-linejoin="round" stroke-miterlimit="1.414" x1="46.839" y1="84.932" x2="54.516" y2="84.932"/>
<polyline fill="none" stroke="#FFFFFF" stroke-width="1.44" stroke-linejoin="round" stroke-miterlimit="1.414" points="
	46.839,107.781 46.839,26.136 62.011,26.136 62.011,106.878 "/>
<text transform="matrix(1 0 0 1 140.2236 127.9551)" fill="#FFFFFF" font-family="'SegoeUI-Semilight'" font-size="31.0747">Irish Tides</text>
</svg>
