<?xml version="1.0" encoding="utf-8"?>
<!-- Generator: Adobe Illustrator 12.0.1, SVG Export Plug-In . SVG Version: 6.00 Build 51448)  -->
<!DOCTYPE svg PUBLIC "-//W3C//DTD SVG 1.1//EN" "http://www.w3.org/Graphics/SVG/1.1/DTD/svg11.dtd" [
	<!ENTITY ns_svg "http://www.w3.org/2000/svg">
	<!ENTITY ns_xlink "http://www.w3.org/1999/xlink">
]>
<svg  version="1.1" id="Layer_1" xmlns="&ns_svg;" xmlns:xlink="&ns_xlink;" width="142.864" height="142.299"
	 viewBox="0 0 142.864 142.299" overflow="visible" enable-background="new 0 0 142.864 142.299" xml:space="preserve">
<polyline fill="#6884EA" stroke="#FFFFFF" stroke-width="0.9" stroke-linejoin="round" stroke-miterlimit="1.414" points="
	0.45,0.45 142.414,0.45 142.414,141.849 0.45,141.849 0.45,0.45 "/>
<path fill-rule="evenodd" clip-rule="evenodd" fill="#D1D7FF" d="M14.957,108.864c3.974,0,7.857-1.264,11.2-3.432
	c3.25-2.258,5.78-5.42,7.315-9.031c0.091-0.361,0.361-0.541,0.723-0.541c0.271,0,0.542,0.18,0.632,0.541
	c1.084,2.529,2.709,4.967,4.787,6.955c2.077,1.986,4.606,3.432,7.226,4.424v-7.586v-5.057v-5.148v-5.059v-5.148v-1.986
	c-1.084,0.813-2.258,1.625-3.522,2.348c-1.265,0.633-2.709,1.176-4.245,1.627c-3.161,0.723-6.503,0.813-9.844,0
	c-3.251-0.904-6.232-2.529-8.58-4.697c-1.174-1.084-2.167-2.256-2.98-3.432c-0.813-1.266-1.445-2.529-1.987-3.793h-0.723V108.864"/>
<path fill-rule="evenodd" clip-rule="evenodd" fill="#D1D7FF" d="M62.011,106.878c4.426-2.168,7.948-5.961,9.754-10.477
	c0.09-0.361,0.361-0.541,0.723-0.541c0.271,0,0.542,0.18,0.723,0.541c1.445,3.611,3.975,6.773,7.315,9.031
	c3.252,2.168,7.135,3.432,11.108,3.432c3.975,0,7.857-1.264,11.109-3.432c3.342-2.258,5.871-5.42,7.316-9.031
	c0.18-0.361,0.451-0.541,0.722-0.541c0.36,0,0.632,0.18,0.723,0.541c1.444,3.432,3.884,6.684,7.315,9.031s7.406,3.432,11.108,3.432
	V69.849h-0.632c-1.445,3.521-3.883,6.773-7.316,9.121c-3.521,2.258-7.404,3.342-11.198,3.342c-3.793,0-7.677-1.084-11.108-3.342
	c-3.433-2.348-5.871-5.6-7.316-9.121h-1.445c-0.902,2.438-2.438,4.787-4.516,6.863c-2.167,2.078-4.786,3.705-7.767,4.607
	c-2.89,0.992-6.052,1.264-8.941,0.813c-2.89-0.361-5.509-1.445-7.677-2.801V106.878"/>
<path fill-rule="evenodd" clip-rule="evenodd" fill="#A0AEFF" d="M34.827,96.401h-1.355c-1.445,3.432-3.883,6.684-7.315,9.031
	c-3.433,2.348-7.406,3.432-11.2,3.432v19.508h114.972v-19.508c-3.702,0-7.677-1.084-11.108-3.432s-5.871-5.6-7.315-9.031h-1.444
	c-1.355,3.432-3.885,6.684-7.316,9.031s-7.315,3.432-11.109,3.432c-3.793,0-7.676-1.084-11.108-3.432
	c-3.432-2.348-5.961-5.6-7.315-9.031h-1.445c-1.445,3.611-4.064,6.773-7.315,9.031c-3.252,2.168-7.135,3.432-11.109,3.432
	s-7.857-1.264-11.199-3.432C38.891,103.175,36.362,100.013,34.827,96.401"/>
<path fill="none" stroke="#FFFFFF" stroke-width="1.98" stroke-linejoin="round" stroke-miterlimit="1.414" d="M15.68,69.849
	c2.348,5.961,7.406,10.295,13.547,11.922c6.142,1.535,12.734,0.09,17.612-3.975"/>
<path fill="none" stroke="#FFFFFF" stroke-width="1.98" stroke-linejoin="round" stroke-miterlimit="1.414" d="M62.011,79.331
	c4.968,3.162,11.11,3.883,16.619,1.988c5.6-1.807,10.115-5.963,12.282-11.471"/>
<path fill="none" stroke="#FFFFFF" stroke-width="1.98" stroke-linejoin="round" stroke-miterlimit="1.414" d="M92.357,69.849
	c1.445,3.703,4.064,6.863,7.316,9.121c3.251,2.168,7.135,3.342,11.108,3.342s7.858-1.174,11.198-3.342
	c3.252-2.258,5.781-5.418,7.316-9.121"/>
<path fill="none" stroke="#FFFFFF" stroke-width="1.98" stroke-linejoin="round" stroke-miterlimit="1.414" d="M14.957,108.864
	c3.974,0,7.857-1.264,11.2-3.432c3.25-2.258,5.78-5.42,7.315-9.031"/>
<path fill="none" stroke="#FFFFFF" stroke-width="1.98" stroke-linejoin="round" stroke-miterlimit="1.414" d="M34.827,96.401
	c1.536,3.611,4.064,6.773,7.315,9.031c3.342,2.168,7.225,3.432,11.199,3.432s7.857-1.264,11.109-3.432
	c3.251-2.258,5.87-5.42,7.315-9.031"/>
<path fill="none" stroke="#FFFFFF" stroke-width="1.98" stroke-linejoin="round" stroke-miterlimit="1.414" d="M73.211,96.401
	c1.445,3.611,3.975,6.773,7.315,9.031c3.252,2.168,7.135,3.432,11.108,3.432c3.975,0,7.857-1.264,11.109-3.432
	c3.342-2.258,5.871-5.42,7.316-9.031"/>
<path fill="none" stroke="#FFFFFF" stroke-width="1.98" stroke-linejoin="round" stroke-miterlimit="1.414" d="M111.505,96.401
	c1.535,3.611,4.064,6.773,7.315,9.031c3.342,2.168,7.135,3.432,11.108,3.432"/>
<path fill="none" stroke="#FFFFFF" stroke-width="1.98" stroke-linejoin="round" stroke-miterlimit="1.414" d="M110.061,96.401
	c0.18-0.361,0.451-0.541,0.722-0.541c0.36,0,0.632,0.18,0.723,0.541"/>
<path fill="none" stroke="#FFFFFF" stroke-width="1.98" stroke-linejoin="round" stroke-miterlimit="1.414" d="M71.766,96.401
	c0.09-0.361,0.361-0.541,0.723-0.541c0.271,0,0.542,0.18,0.723,0.541"/>
<path fill="none" stroke="#FFFFFF" stroke-width="1.98" stroke-linejoin="round" stroke-miterlimit="1.414" d="M34.827,96.401
	c-0.09-0.361-0.361-0.541-0.632-0.541c-0.362,0-0.632,0.18-0.723,0.541"/>
<path fill="none" stroke="#FFFFFF" stroke-width="1.98" stroke-linejoin="round" stroke-miterlimit="1.414" d="M90.912,69.849
	c0.091-0.271,0.452-0.451,0.723-0.451c0.361,0,0.633,0.18,0.723,0.451"/>
<path fill="none" stroke="#FFFFFF" stroke-width="1.98" stroke-linejoin="round" stroke-miterlimit="1.414" d="M129.297,69.849
	c0.09-0.271,0.361-0.451,0.632-0.451"/>
<path fill="none" stroke="#FFFFFF" stroke-width="1.98" stroke-linejoin="round" stroke-miterlimit="1.414" d="M15.68,69.849
	c-0.09-0.271-0.361-0.451-0.723-0.451"/>
<path fill-rule="evenodd" clip-rule="evenodd" fill="#FF0000" d="M62.011,106.878V79.331V26.136H46.839v7.676v25.561v18.424v1.986
	v5.148v5.059v5.148v5.057v7.586c2.438,0.813,4.967,1.176,7.677,0.994C57.135,108.593,59.663,107.962,62.011,106.878"/>
<path fill="none" stroke="#FFFFFF" stroke-linejoin="bevel" stroke-miterlimit="1.414" d="M46.839,77.413
	c2.53-2.082,4.515-4.875,5.78-7.949"/>
<line fill="none" stroke="#FFFFFF" stroke-width="0.36" stroke-linejoin="bevel" stroke-miterlimit="1.414" x1="46.839" y1="38.87" x2="50.632" y2="38.87"/>
<line fill="none" stroke="#FFFFFF" stroke-width="0.36" stroke-linejoin="bevel" stroke-miterlimit="1.414" x1="46.839" y1="44.018" x2="50.632" y2="44.018"/>
<line fill="none" stroke="#FFFFFF" stroke-width="0.36" stroke-linejoin="bevel" stroke-miterlimit="1.414" x1="46.839" y1="49.165" x2="50.632" y2="49.165"/>
<line fill="none" stroke="#FFFFFF" stroke-width="0.36" stroke-linejoin="bevel" stroke-miterlimit="1.414" x1="46.839" y1="54.224" x2="50.632" y2="54.224"/>
<line fill="none" stroke="#FFFFFF" stroke-width="0.36" stroke-linejoin="bevel" stroke-miterlimit="1.414" x1="46.839" y1="64.43" x2="50.632" y2="64.43"/>
<line fill="none" stroke="#FFFFFF" stroke-width="0.36" stroke-linejoin="bevel" stroke-miterlimit="1.414" x1="46.839" y1="69.577" x2="50.632" y2="69.577"/>
<line fill="none" stroke="#FFFFFF" stroke-width="0.36" stroke-linejoin="bevel" stroke-miterlimit="1.414" x1="46.839" y1="74.726" x2="50.632" y2="74.726"/>
<line fill="none" stroke="#FFFFFF" stroke-width="0.36" stroke-linejoin="bevel" stroke-miterlimit="1.414" x1="46.839" y1="79.782" x2="50.632" y2="79.782"/>
<line fill="none" stroke="#FFFFFF" stroke-width="0.36" stroke-linejoin="bevel" stroke-miterlimit="1.414" x1="46.839" y1="89.989" x2="50.632" y2="89.989"/>
<line fill="none" stroke="#FFFFFF" stroke-width="0.36" stroke-linejoin="bevel" stroke-miterlimit="1.414" x1="46.839" y1="95.138" x2="50.632" y2="95.138"/>
<line fill="none" stroke="#FFFFFF" stroke-width="0.36" stroke-linejoin="bevel" stroke-miterlimit="1.414" x1="46.839" y1="100.194" x2="50.632" y2="100.194"/>
<line fill="none" stroke="#FFFFFF" stroke-width="0.36" stroke-linejoin="bevel" stroke-miterlimit="1.414" x1="46.839" y1="105.343" x2="50.632" y2="105.343"/>
<path fill="none" stroke="#FFFFFF" stroke-linecap="round" stroke-linejoin="bevel" stroke-miterlimit="1.414" d="M62.011,78.946
	c-3.611-2.166-6.414-5.508-7.947-9.482 M54.064,69.464c-0.182-0.271-0.452-0.451-0.723-0.451c-0.361,0-0.632,0.181-0.723,0.451"/>
<line fill="none" stroke="#FFFFFF" stroke-width="0.9" stroke-linejoin="round" stroke-miterlimit="1.414" x1="46.839" y1="33.812" x2="54.516" y2="33.812"/>
<line fill="none" stroke="#FFFFFF" stroke-width="0.9" stroke-linejoin="round" stroke-miterlimit="1.414" x1="46.839" y1="59.372" x2="54.516" y2="59.372"/>
<line fill="none" stroke="#FFFFFF" stroke-width="0.9" stroke-linejoin="round" stroke-miterlimit="1.414" x1="46.839" y1="84.931" x2="54.516" y2="84.931"/>
<polyline fill="none" stroke="#FFFFFF" stroke-width="1.44" stroke-linejoin="round" stroke-miterlimit="1.414" points="
	46.839,107.78 46.839,26.136 62.011,26.136 62.011,106.878 "/>
</svg>
