<?xml version="1.0" standalone="no"?>
<!DOCTYPE svg PUBLIC "-//W3C//DTD SVG 20010904//EN"
 "http://www.w3.org/TR/2001/REC-SVG-20010904/DTD/svg10.dtd">
<svg version="1.0" xmlns="http://www.w3.org/2000/svg"
 width="150.000000pt" height="150.000000pt" viewBox="0 0 150.000000 150.000000"
 preserveAspectRatio="xMidYMid meet">
<metadata>
Created by potrace 1.10, written by Peter Selinger 2001-2011
</metadata>
<g transform="translate(0.000000,150.000000) scale(0.100000,-0.100000)"
fill="#000000" stroke="none">
<path d="M331 1268 c-1 -21 -6 -28 -21 -28 -12 0 -20 7 -20 18 0 10 -3 13 -8
6 -4 -6 -12 -13 -18 -15 -5 -2 -63 -38 -127 -79 l-116 -75 -1 -522 0 -523 674
0 c527 0 676 3 683 13 17 22 123 278 122 295 0 11 -2 12 -6 5 -8 -22 -97 -15
-226 17 -136 34 -277 80 -277 90 0 4 -11 23 -24 43 -17 25 -21 38 -13 41 7 3
1 3 -13 0 -14 -3 -35 -12 -46 -19 -19 -12 -27 -10 -73 18 -43 27 -53 39 -67
82 -21 65 -37 83 -58 65 -9 -7 -16 -19 -16 -26 0 -8 -4 -14 -9 -14 -18 0 -42
85 -48 166 -5 75 -4 82 13 87 16 4 16 5 2 6 -11 1 -20 12 -23 29 -18 84 -31
116 -57 142 -25 26 -28 35 -28 94 l0 66 -94 0 c-90 0 -95 1 -99 23 -4 19 -4
18 -6 -5z m-51 -62 c0 -18 7 -39 15 -46 22 -19 45 5 45 46 l0 34 82 0 83 0
-113 -75 -113 -76 -117 3 -117 3 110 72 c61 39 113 72 118 72 4 1 7 -14 7 -33z
m240 -34 l0 -58 -57 -41 c-32 -23 -84 -60 -115 -83 l-58 -41 1 68 0 68 112 72
c62 40 113 73 115 73 1 0 2 -26 2 -58z m24 -81 c3 -4 -43 -49 -103 -99 l-108
-90 -151 -1 -152 -2 0 91 0 90 125 0 125 0 0 -73 c0 -43 5 -78 12 -85 17 -17
33 -15 19 2 -9 11 9 29 96 94 106 80 127 90 137 73z m110 -536 c-8 -44 -13
-87 -10 -95 2 -8 4 -4 5 10 1 24 3 25 75 25 41 -1 80 -6 88 -11 20 -16 123
-38 147 -31 17 4 22 -1 30 -31 21 -84 21 -90 6 -96 -25 -9 -17 -33 16 -45 42
-14 86 -14 95 1 5 8 10 6 15 -8 7 -18 8 -18 8 2 1 24 -17 83 -32 102 -7 9 -17
8 -43 -9 -26 -16 -35 -18 -38 -7 -11 32 -24 88 -21 88 3 0 28 -9 57 -21 88
-35 319 -89 379 -89 l57 0 -51 -120 c-27 -65 -54 -117 -58 -114 -5 3 -6 -2 -3
-10 5 -13 -3 -16 -37 -18 -71 -2 -97 2 -231 36 -71 17 -128 29 -128 25 0 -7
58 -24 200 -58 l75 -19 -612 -1 -613 -1 0 90 0 90 103 2 102 2 -102 3 -103 4
0 65 0 65 233 -3 c127 -2 241 -7 252 -11 19 -8 19 -8 2 6 -17 14 -15 19 28 86
25 39 43 76 40 81 -4 6 -3 10 2 9 18 -3 47 3 36 8 -9 3 -4 17 14 44 14 22 27
38 28 37 2 -2 -4 -39 -11 -83z"/>
<path d="M1354 1008 c-4 -13 -7 -36 -5 -52 1 -16 -4 -33 -11 -38 -10 -6 -10
-8 0 -8 8 0 12 -21 12 -70 0 -67 -5 -79 -26 -62 -5 4 -1 -1 9 -11 14 -12 18
-26 14 -50 -2 -18 2 -45 11 -62 l15 -30 9 25 c11 28 13 328 3 359 -8 27 -22
27 -31 -1z"/>
</g>
</svg>
